<svg width="631" height="631" viewBox="0 0 631 631" fill="none" xmlns="http://www.w3.org/2000/svg">
<path d="M631 315.5C631 489.746 489.746 631 315.5 631C141.254 631 0 489.746 0 315.5C0 141.254 141.254 0 315.5 0C489.746 0 631 141.254 631 315.5Z" fill="#B7C3F3"/>
<path d="M292.531 81.9375C277.843 82.6444 263.251 85.7644 249.906 91.9375C241.121 96.0012 233.072 101.495 225.531 107.531C216.913 114.431 208.665 122.138 201.844 130.844C196.989 137.039 192.832 143.766 188.031 150C186.116 152.488 184.123 154.987 181.844 157.156C176.411 162.328 169.484 165.835 162.562 168.562C152.269 172.618 141.014 173.973 130.188 171.281C124.439 169.852 119.042 167.314 113.656 164.906C110.337 163.422 106.998 161.875 103.594 160.594C101.898 159.955 100.152 159.431 98.4375 158.844C94.9563 157.652 91.1917 159.519 90 163C88.8083 166.481 90.6438 170.246 94.125 171.438C97.2916 172.52 100.42 173.655 103.5 174.969C111.239 178.27 118.757 182.152 126.969 184.188C137.277 186.743 148.205 186.497 158.469 183.844C162.316 182.849 166.061 181.483 169.719 179.938C177.414 176.685 184.924 172.528 190.969 166.688C192.113 165.582 193.159 164.372 194.219 163.188C201.277 155.297 206.479 146.017 213.094 137.781C218.727 130.768 225.386 124.467 232.312 118.75C239.399 112.902 246.966 107.525 255.312 103.625C270.763 96.4063 288.211 93.858 305.156 94.625C307.658 94.7382 310.153 94.8954 312.656 95C316.127 95.1451 319.662 95.2982 323.062 96.0625C324.709 96.4325 327.432 97.1186 328.531 98.5312C329.735 100.078 330.145 102.272 330.438 104.156C330.966 107.56 330.995 111.068 331.219 114.5C331.982 126.21 332.697 137.885 332.375 149.625C332.279 153.107 335.049 155.997 338.531 156.094C342.014 156.19 344.904 153.451 345 149.969C345.355 137.242 344.501 124.6 343.688 111.906C343.225 104.694 343.189 96.7434 338.531 90.75C335.996 87.4878 332.199 85.5347 328.312 84.3438C321.511 82.2598 314.25 82.4054 307.219 82C302.351 81.7193 297.427 81.7019 292.531 81.9375Z" fill="#201F51"/>
<path d="M482.438 138.625C480.889 138.66 479.356 138.787 477.812 139.031C476.055 139.31 474.327 139.793 472.719 140.562C471.478 141.157 470.312 141.901 469.281 142.812C462.782 148.564 463.768 157.624 462.344 165.375C461.979 167.359 461.33 169.083 460.562 170.938C460.076 172.114 459.618 173.337 458.969 174.438C458.188 175.762 456.808 176.541 455.469 177.219C453.33 178.301 451.118 179.217 449 180.344C445.925 181.982 444.768 185.8 446.406 188.875C448.044 191.95 451.863 193.107 454.938 191.469C458.963 189.321 463.28 187.88 466.719 184.75C469.387 182.321 470.865 179.049 472.219 175.781C472.874 174.199 473.531 172.651 474 171C475.129 167.021 475.389 162.871 475.844 158.781C475.967 157.669 476.119 156.566 476.344 155.469C476.494 154.734 476.551 154.494 476.781 153.781C477.375 151.942 478.553 151.659 480.375 151.438C485.391 150.828 490.427 151.897 495.312 152.938C499.763 153.886 504.141 155.056 508.219 157.125C514.304 160.213 519.125 165.026 522.594 170.875C523.514 172.427 524.418 174.036 525 175.75C525.871 178.314 526.266 181.007 526.781 183.656C527.193 185.773 527.622 187.864 528.219 189.938C529.517 194.448 531.273 198.828 532.75 203.281C536.384 214.238 538.354 225.633 539.25 237.125C539.913 245.627 539.982 254.134 540.031 262.656C540.064 268.34 540.843 274.036 540.406 279.719C540.112 283.547 539.019 287.279 538.594 291.094C538.355 293.238 538.283 295.379 538.156 297.531C538.009 300.037 537.852 302.562 537.625 305.062C536.617 316.167 534.932 327.45 531.031 337.938C525.684 352.314 515.947 364.554 507.375 377.094C505.3 380.132 506.086 384.269 509.125 386.344C512.164 388.419 516.3 387.632 518.375 384.594C527.566 371.122 537.75 357.97 543.469 342.531C547.532 331.562 549.489 319.891 550.625 308.281C550.949 304.964 551.189 301.64 551.375 298.312C551.483 296.392 551.511 294.446 551.719 292.531C552.148 288.568 553.255 284.701 553.562 280.719C554.064 274.234 553.179 267.767 553.156 261.281C553.105 246.681 552.511 232.002 549.781 217.625C548.298 209.812 546.082 202.242 543.438 194.75C542.173 191.169 540.779 187.577 539.906 183.875C539.082 180.379 538.622 176.842 537.656 173.375C536.955 170.856 535.883 168.507 534.625 166.219C529.525 156.943 521.914 149.394 512.25 144.969C507.146 142.632 501.758 141.308 496.281 140.188C491.73 139.256 487.082 138.521 482.438 138.625Z" fill="#201F51"/>
<path d="M479.094 232.844C475.615 232.669 472.644 235.365 472.469 238.844C471.676 254.442 471.773 270.047 472.938 285.625C474.167 302.078 476.576 318.409 479.75 334.594C480.331 337.557 480.994 340.491 481.5 343.469C482.715 350.615 483.526 357.971 487.406 364.281C488.809 366.561 490.56 368.543 492.5 370.375C495.182 372.894 499.388 372.745 501.906 370.062C504.425 367.38 504.276 363.175 501.594 360.656C500.506 359.643 499.533 358.584 498.75 357.312C496.065 352.955 495.629 347.464 494.812 342.531C494.112 338.301 493.168 334.139 492.312 329.938C488.459 311.007 485.796 291.744 484.906 272.438C484.399 261.44 484.516 250.462 485.062 239.469C485.237 235.99 482.573 233.019 479.094 232.844Z" fill="#201F51"/>
<path d="M108.094 159.344C104.64 158.886 101.457 161.328 101 164.781C100.931 165.371 100.728 165.915 100.625 166.5C100.441 167.552 100.315 168.658 100.438 169.719C100.699 171.973 101.921 174.42 102.781 176.531C104.5 180.75 106.34 184.925 108.313 189.031C112.18 197.081 116.34 204.871 123.156 210.844C135.937 222.043 153.219 224.176 169.531 224.938C173.425 225.119 177.32 225.421 181.219 225.188C183.748 225.036 186.273 224.65 188.75 224.125C196.846 222.41 204.469 219.096 212.094 215.969C215.497 214.569 217.15 210.684 215.75 207.281C214.35 203.878 210.434 202.256 207.031 203.656C199.257 206.865 191.392 210.47 183 211.688C179.12 212.25 175.18 211.97 171.281 211.812C166.982 211.639 162.685 211.435 158.406 210.969C148.879 209.93 139.006 207.586 131.563 201.188C127.814 197.965 125.19 193.991 122.844 189.688C121.19 186.653 119.656 183.549 118.219 180.406C116.755 177.205 115.365 173.958 114.063 170.688C113.764 169.938 113.458 169.185 113.156 168.438C113.148 168.416 113.132 168.398 113.125 168.375C113.15 168.273 113.195 168.165 113.219 168.062C113.346 167.516 113.424 166.993 113.5 166.438C113.957 162.984 111.547 159.801 108.094 159.344Z" fill="#201F51"/>
<path d="M336.656 163.75C334.014 163.456 331.6 164.357 329.125 165.094C327.442 165.595 325.696 165.914 324 166.375C321.102 167.162 318.239 168.107 315.438 169.188C308.992 171.672 302.871 174.917 297.031 178.594C283.558 187.077 271.897 198.005 261.812 210.281C256.606 216.619 251.59 223.268 247.469 230.375C246.432 232.163 245.463 233.983 244.562 235.844C240.67 243.881 237.423 254.338 242.375 262.688C243.023 263.781 243.783 264.796 244.656 265.719C245.741 266.864 247.004 267.843 248.375 268.625C256.852 273.46 267.2 269.342 274.938 265.031C276.446 264.191 277.948 263.298 279.406 262.375C281.036 261.343 282.627 260.277 284.219 259.188C292.435 253.56 301.042 248.542 308.812 242.281C320.145 233.15 330.099 222.512 340.312 212.188C347.902 204.516 355.979 197.297 361.781 188.094C362.263 187.329 362.79 186.579 363.219 185.781C366.069 180.477 363.627 174.047 358.656 171C356.106 169.437 358.661 171.003 346.625 168.219C346.427 168.162 346.23 168.194 346.031 168.156C345.456 167.782 344.91 167.388 344.344 167C341.972 165.377 339.564 164.074 336.656 163.75ZM335.5 176.344C335.51 176.346 335.522 176.341 335.531 176.344C335.553 176.35 335.573 176.366 335.594 176.375C335.965 176.536 338.266 177.96 339.906 178.969C340.717 179.883 341.676 180.669 342.938 181.031C344.432 181.447 343.819 181.263 344.438 181.438C345.938 181.861 347.575 181.874 349.125 182C349.322 182.016 349.522 182.045 349.719 182.062C348.803 183.458 347.925 184.873 346.875 186.188C343.814 190.019 340.331 193.47 336.844 196.906C334.27 199.442 331.718 201.984 329.188 204.562C319.927 214 310.789 223.658 300.5 232C294.873 236.562 288.775 240.45 282.719 244.406C276.054 248.76 269.636 253.998 262.062 256.719C259.746 257.551 255.759 258.846 253.844 256.562C251.948 254.303 252.949 250.044 253.688 247.562C253.836 247.064 254.014 246.584 254.188 246.094C256.942 238.291 261.801 231.277 266.719 224.688C279.771 207.198 296.246 191.393 316.406 182.438C319.935 180.87 323.586 179.576 327.312 178.562C328.628 178.205 329.96 177.924 331.281 177.594C332.196 177.365 333.102 177.07 334 176.781C334.348 176.669 334.682 176.576 335.031 176.469C335.153 176.431 335.362 176.373 335.5 176.344Z" fill="#201F51"/>
<path d="M415.188 188.344C403.97 188.721 392.806 193.963 383.625 199.938C381.298 201.452 379.035 203.046 376.844 204.75C370.255 209.874 364.336 215.828 359.125 222.344C349.108 234.869 341.774 249.449 337.062 264.75C333.999 274.698 332.07 284.713 332.562 295.156C333.261 309.958 338.897 325.113 352.375 332.781C358.996 336.548 366.617 337.407 374.094 336.344C378.972 335.65 383.587 334.153 388.281 332.719C396.682 330.152 405.354 327.927 412.219 322.125C415.185 319.618 417.741 316.57 420.062 313.469C424.335 307.761 427.768 301.462 430.688 294.969C436.16 282.799 439.851 269.857 442.688 256.844C444.773 247.274 446.559 237.656 446.844 227.844C447.03 221.423 446.745 215.006 446.438 208.594C446.277 205.246 446.456 201.346 444.906 198.25C444.389 197.216 443.687 196.225 442.812 195.469C441.839 194.628 440.795 194.163 439.562 193.844C437.681 193.356 437.698 193.482 436.531 194.594C434.375 193.018 431.975 191.745 429.531 190.812C428.46 190.403 427.442 190.049 426.344 189.719C422.666 188.612 418.927 188.218 415.188 188.344ZM413.781 201.031C415.569 200.846 417.365 200.841 419.094 201.031C421.875 201.338 424.686 202.302 427.188 203.531C427.315 203.594 427.433 203.685 427.562 203.75C427.498 205.899 428.369 208.033 430.25 209.375C431.163 210.026 432.179 210.329 433.219 210.469C433.22 210.5 433.217 210.531 433.219 210.562C433.544 217.026 433.799 223.532 433.469 230C433.193 235.402 432.344 240.69 431.344 246C430.423 250.892 429.369 255.758 428.188 260.594C425.774 270.47 422.779 280.269 418.625 289.562C415.737 296.023 412.265 302.304 407.75 307.781C406.112 309.768 404.359 311.692 402.25 313.188C396.687 317.132 389.702 318.536 383.312 320.562C374.447 323.375 364.832 326.154 356.719 320.125C346.954 312.869 344.803 299.333 345.438 287.938C345.843 280.652 347.646 273.518 349.875 266.594C355.408 249.409 364.626 233.239 377.719 220.688C383.861 214.799 390.826 209.835 398.406 205.969C402.97 203.641 408.418 201.588 413.781 201.031Z" fill="#201F51"/>
<path d="M393.406 257.75C392.541 257.764 391.654 257.972 390.812 258.344C390.079 258.668 389.484 259.131 388.938 259.656C388.753 259.71 388.557 259.724 388.375 259.781C385.263 260.753 383.008 262.128 381.156 264.875C379.568 267.231 378.76 269.937 377.75 272.562C377.058 274.361 376.386 276.128 375.906 278C373.956 285.603 373.851 294.348 376.875 301.688C377.709 303.712 378.828 305.654 380.188 307.375C381.164 308.612 382.311 309.73 383.656 310.562C384.869 311.313 386.235 311.829 387.656 312C394.327 312.803 398.184 306.89 400.469 301.594C402.504 296.875 404.141 291.88 404.656 286.75C404.663 286.687 404.65 286.625 404.656 286.562C406.615 285.061 407.576 282.504 406.906 279.969C405.41 274.315 405.347 268.219 401.969 263.219C401.388 262.359 400.742 261.538 399.938 260.875C399.45 260.473 398.9 260.273 398.375 260C397.085 258.576 395.313 257.72 393.406 257.75ZM390.312 275.312C391.463 279.575 391.99 283.953 391 288.438C390.457 290.897 389.551 293.312 388.594 295.656C388.009 293.933 387.656 292.119 387.531 290.312C387.301 286.969 387.598 283.542 388.5 280.312C388.908 278.851 389.523 277.459 390.031 276.031C390.118 275.787 390.227 275.556 390.312 275.312Z" fill="#201F51"/>
<path d="M300.75 211.469C300.115 211.588 299.702 212.303 297.094 214.031C296.382 213.754 295.681 213.427 294.906 213.406C294.598 213.398 293.801 213.32 293.438 213.5C292.323 214.05 291.171 214.537 290.094 215.156C289.829 215.308 289.639 215.583 289.438 215.812C287.406 218.125 286.895 220.871 286.219 223.75C285.744 225.773 285.367 227.814 285.531 229.906C285.624 231.087 285.906 232.253 286.281 233.375C287.699 237.613 290.954 240.7 295.75 240.094C302.422 239.251 306.381 231.882 308 226.062C308.28 225.057 308.511 224.034 308.656 223C309.058 220.14 308.886 216.937 307.031 214.562C306.264 213.581 305.361 212.777 304.219 212.25C303.591 211.96 302.899 211.749 302.219 211.625C301.431 211.481 301.058 211.411 300.75 211.469Z" fill="#201F51"/>
<path d="M227.75 264.875C225.295 264.754 222.885 266.084 221.75 268.438C219.298 273.517 216.287 278.279 212.688 282.625C204.119 292.97 192.97 300.83 182.594 309.219C176.179 314.404 169.727 319.513 163.062 324.375C152.375 332.172 141.315 339.441 130.031 346.344C124.71 349.599 119.365 352.823 113.906 355.844C104.413 361.097 94.3156 365.126 84.5312 369.781C81.8148 371.074 79.0624 372.369 76.4062 373.781C73.7726 375.181 71.2166 376.742 68.625 378.219C65.4295 380.043 64.3321 384.117 66.1563 387.312C67.9804 390.508 72.0232 391.605 75.2188 389.781C77.6946 388.365 80.1403 386.874 82.6562 385.531C85.136 384.208 87.7135 382.993 90.25 381.781C100.278 376.991 110.627 372.834 120.344 367.406C126.447 363.997 132.399 360.332 138.344 356.656C151.359 348.609 163.996 339.944 176.156 330.656C181.406 326.647 186.513 322.463 191.625 318.281C200.236 311.237 209.229 304.595 217.031 296.625C223.588 289.927 229.05 282.386 233.125 273.938C234.639 270.8 233.325 267.014 230.188 265.5C229.403 265.122 228.568 264.915 227.75 264.875Z" fill="#201F51"/>
<path d="M67.4063 380.969C66.6008 380.819 65.757 380.814 64.9063 381C61.5034 381.746 59.348 385.128 60.0938 388.531C62.0306 397.405 63.5711 406.403 66.4688 415.031C67.7367 418.807 69.2294 422.523 71.1875 426C73.4583 430.032 77.1099 432.652 80.25 435.938C83.5829 439.425 87.0023 442.79 91.0625 445.438C96.3542 448.888 102.349 450.862 108.625 451.469C111.652 451.761 114.685 451.73 117.719 451.594C121.394 451.421 124.235 448.3 124.063 444.625C123.89 440.95 120.769 438.109 117.094 438.281C112.757 438.494 108.37 438.426 104.188 437.125C101.294 436.225 98.6325 434.723 96.2188 432.906C93.2044 430.637 90.7658 427.854 88.0312 425.281C86.37 423.718 84.4619 422.329 83.0312 420.531C82.5338 419.906 82.1537 419.203 81.7812 418.5C79.1089 413.454 77.4361 407.957 76.0625 402.438C74.6921 396.931 73.6256 391.353 72.4062 385.812C71.8469 383.26 69.8227 381.419 67.4063 380.969Z" fill="#201F51"/>
<path d="M333.562 371.938C331.859 372.004 330.187 372.712 328.938 374.062C325.613 377.66 322.048 380.981 318.188 384C309.642 390.683 300.139 395.998 290.969 401.75C284.832 405.599 278.757 409.454 272.312 412.781C258.096 420.12 242.962 425.656 227.5 429.719C219.11 431.923 210.596 433.689 202.031 435.062C195.956 436.037 189.841 436.645 183.75 437.5C173 439.009 162.346 441.215 151.469 441.625C139.403 442.08 127.453 440.58 115.563 438.688C112.122 438.139 108.893 440.497 108.344 443.938C107.795 447.378 110.122 450.607 113.563 451.156C126.899 453.288 140.315 454.849 153.844 454.188C164.504 453.666 174.949 451.566 185.5 450.125C190.193 449.484 194.902 449.03 199.594 448.375C208.564 447.124 217.472 445.482 226.281 443.375C243.503 439.255 260.411 433.45 276.281 425.562C281.117 423.159 285.855 420.555 290.469 417.75C293.012 416.204 295.476 414.578 298 413C306.909 407.428 316.077 402.217 324.5 395.906C329.625 392.067 334.368 387.822 338.719 383.125C341.218 380.424 341.045 376.218 338.344 373.719C336.993 372.469 335.266 371.871 333.562 371.938Z" fill="#201F51"/>
<path d="M282.719 370.594C279.294 371.234 277.047 374.513 277.688 377.938C278.077 380.029 278.353 382.122 278.438 384.25C278.805 393.536 276.095 405.418 267.906 411.031C264.884 413.13 264.121 417.29 266.219 420.312C268.317 423.335 272.477 424.067 275.5 421.969C289.904 411.877 293.117 391.889 290.062 375.625C289.422 372.201 286.143 369.953 282.719 370.594Z" fill="#201F51"/>
<path d="M288.031 354.219C286.513 354.251 285.124 354.63 283.656 355C281.701 355.493 279.745 356.017 277.812 356.594C273.077 358.007 268.415 359.734 264.031 362.031C262.409 362.881 260.853 363.769 259.438 364.938C256.345 367.491 254.255 370.956 251.594 373.906C249.258 376.491 249.446 380.477 252.031 382.812C254.616 385.148 258.602 384.96 260.938 382.375C262.032 381.165 263.057 379.909 264.062 378.625C265.116 377.279 266.165 375.838 267.5 374.75C268.179 374.196 269.048 373.84 269.812 373.469C270.87 372.955 271.878 372.502 272.969 372.062C275.73 370.949 278.6 370.069 281.469 369.281C283.731 368.66 286.005 368.126 288.281 367.562C288.368 367.58 288.447 367.572 288.531 367.594C288.843 367.676 289.158 367.76 289.469 367.844C290.278 368.061 291.085 368.269 291.906 368.438C295.515 369.156 299.031 366.796 299.75 363.188C300.469 359.579 298.14 356.094 294.531 355.375C292.36 354.962 290.276 354.171 288.031 354.219Z" fill="#201F51"/>
<path d="M475.5 324.906C473.048 325.08 470.814 326.684 469.969 329.156C464.727 344.445 457.666 360.355 459.375 376.906C460.289 385.759 463.957 393.824 467.375 401.938C468.811 405.325 472.706 406.936 476.094 405.5C479.482 404.064 481.061 400.138 479.625 396.75C476.694 389.874 473.36 382.978 472.469 375.469C471.802 369.851 472.54 364.109 473.781 358.625C475.744 349.949 479.045 341.651 481.906 333.25C483.033 329.954 481.265 326.377 477.969 325.25C477.145 324.968 476.317 324.848 475.5 324.906Z" fill="#201F51"/>
<path d="M334 377.281C330.532 376.951 327.456 379.501 327.125 382.969C326.472 389.72 326.265 396.487 325.781 403.25C325.074 413.14 323.709 422.946 318.406 431.531C316.484 434.669 317.456 438.765 320.594 440.688C323.731 442.61 327.828 441.606 329.75 438.469C332.353 434.191 334.366 429.638 335.719 424.812C339.418 411.62 338.418 397.673 339.688 384.156C340.018 380.688 337.468 377.612 334 377.281Z" fill="#201F51"/>
<path d="M464.938 397.219C462.347 397.393 459.996 399.08 459.094 401.688C457.863 405.261 456.299 408.648 454.438 411.938C452.628 415.135 450.52 418.154 448.812 421.406C447.506 423.894 446.549 426.572 445.125 429C443.238 432.218 440.874 435.25 438.469 438.094C433.146 444.386 426.838 450.066 419.594 454.062C413.076 457.659 405.646 459.182 398.562 461.25C396.473 461.86 394.38 462.477 392.344 463.25C389.771 464.227 387.307 465.453 384.75 466.469C380.85 468.018 376.807 468.348 372.625 468.188C367.006 467.972 361.457 466.727 356.281 464.531C353.648 463.414 351.159 461.972 348.656 460.594C342.442 457.172 335.878 453.682 331.281 448.125C328.613 444.899 326.864 441.164 325.625 437.188C324.589 433.862 321.045 431.995 317.719 433.031C314.393 434.067 312.558 437.612 313.594 440.938C315.925 448.419 319.791 455.113 325.594 460.438C330.162 464.629 335.52 467.802 340.906 470.812C344.761 472.967 348.605 475.15 352.719 476.781C360.311 479.792 368.521 481.25 376.688 480.969C378.826 480.895 380.987 480.766 383.094 480.375C389.044 479.272 394.315 476.103 400.062 474.344C408.782 471.675 417.822 470.012 425.906 465.594C438.135 458.91 448.435 448.448 455.938 436.781C458.097 433.424 459.312 429.609 461.344 426.188C463.194 423.071 465.175 420.032 466.906 416.844C468.797 413.361 470.356 409.773 471.656 406.031C472.86 402.554 471.04 398.766 467.562 397.562C466.693 397.262 465.801 397.161 464.938 397.219Z" fill="#201F51"/>
<path d="M468.656 390.844C465.2 391.279 462.752 394.419 463.188 397.875C464.821 410.975 466.177 424.136 467.938 437.219C468.823 443.797 469.909 450.329 471 456.875C471.614 460.503 475.028 462.958 478.656 462.344C482.284 461.73 484.739 458.284 484.125 454.656C480.796 435.281 478.168 415.813 475.688 396.312C475.252 392.856 472.113 390.408 468.656 390.844Z" fill="#201F51"/>
<path d="M315.625 437.312C312.164 437.713 309.693 440.852 310.094 444.312C312.489 465.226 315.226 486.097 317.438 507.031C317.833 510.689 321.123 513.333 324.781 512.938C328.439 512.542 331.083 509.252 330.688 505.594C329.913 498.573 329.12 491.565 328.188 484.562C326.337 470.66 324.254 456.776 322.625 442.844C322.225 439.383 319.086 436.912 315.625 437.312Z" fill="#201F51"/>
<path d="M473.312 448.719C470.746 449.112 468.521 451.012 467.844 453.688C466.253 459.989 465.143 466.385 463.562 472.688C462.423 477.232 461.015 481.801 458.594 485.844C454.908 491.997 448.859 496.446 443.344 500.844C440.999 502.714 438.71 504.668 436.438 506.625C435.9 507.088 435.37 507.53 434.812 507.969C434.653 508.095 434.477 508.253 434.312 508.375C434.177 508.429 434.046 508.467 433.906 508.5C433.571 508.578 433.218 508.619 432.875 508.656C430.805 508.881 428.718 508.839 426.656 509.156C423.424 509.654 420.233 510.424 417 510.938C410.6 511.954 404.135 512.616 397.656 512.812C391.957 512.985 386.233 512.799 380.562 512.188C376.572 511.757 372.619 511.032 368.656 510.406C362.02 509.358 355.252 508.38 348.875 506.188C340.871 503.435 333.604 498.926 326.031 495.219C322.903 493.686 319.127 494.997 317.594 498.125C316.061 501.253 317.372 505.03 320.5 506.562C328.552 510.512 336.24 515.212 344.75 518.156C352.183 520.728 360.046 521.873 367.781 523.125C373.135 523.992 378.462 524.895 383.875 525.312C395.978 526.246 408.18 525.527 420.156 523.625C422.064 523.322 423.946 522.986 425.844 522.625C426.953 522.414 428.062 522.145 429.188 522.031C432.891 521.658 436.61 521.799 440.094 520.219C441.427 519.614 442.622 518.572 443.75 517.656C445.6 516.154 447.331 514.525 449.188 513.031C455.789 507.72 462.801 502.679 467.875 495.781C476.169 484.506 477.434 470.11 480.781 456.938C481.685 453.371 479.504 449.747 475.938 448.844C475.046 448.618 474.168 448.588 473.312 448.719Z" fill="#201F51"/>
<path d="M324.75 496.219C321.885 496.072 319.068 496.724 316.312 497.438C313.673 498.121 311.218 498.87 308.812 500.188C306.274 501.578 303.953 503.319 301.562 504.938C298.903 506.738 296.274 508.513 293.844 510.625C288.764 515.041 284.499 520.45 281.719 526.594C280.989 528.206 280.326 529.879 279.781 531.562C277.176 539.61 276.466 550.012 284.219 555.562C285.516 556.492 286.983 557.197 288.5 557.688C291.611 558.693 295.011 558.915 298.188 558.094C300.315 557.544 302.277 556.508 304.344 555.781C308.801 554.213 313.107 552.327 317.062 549.719C325.995 543.827 332.122 535.02 336.062 525.188C336.536 524.006 336.936 522.807 337.406 521.625C337.946 520.267 338.494 518.927 338.719 517.469C338.953 515.946 338.847 514.37 338.688 512.844C338.411 510.191 337.838 507.522 336.875 505.031C335.979 502.714 334.694 500.447 332.781 498.812C332.477 498.553 332.788 498.797 331.125 497.625C330.021 496.97 328.82 496.822 327.625 496.844C326.452 496.451 326.168 496.291 324.75 496.219ZM322.094 509.031C322.537 508.949 323.323 509.024 324.062 509.062C324.745 510.418 325.098 511.91 325.344 513.406C325.435 513.962 325.498 514.501 325.531 515.062C325.539 515.192 325.527 515.347 325.562 515.469C325.365 515.844 325.207 516.383 325.062 516.75C324.84 517.316 324.581 517.967 324.375 518.531C323.474 521.003 322.46 523.429 321.219 525.75C318.458 530.912 314.64 535.453 309.75 538.719C306.697 540.758 303.378 542.224 299.938 543.469C299.219 543.729 298.518 543.986 297.812 544.281C295.802 545.122 294.859 545.88 292.75 545.406C292.364 545.32 291.888 545.161 291.594 544.875C290.642 543.951 290.794 541.472 290.938 540.312C290.988 539.905 291.027 539.499 291.094 539.094C291.159 538.701 291.257 538.295 291.344 537.906C291.435 537.496 291.515 537.093 291.625 536.688C291.856 535.831 292.106 535.054 292.406 534.219C294.383 528.721 297.793 524.038 302.188 520.188C305.101 517.635 308.427 515.592 311.594 513.375C313.075 512.338 314.571 511.289 316.25 510.594C317.578 510.044 319.049 509.752 320.438 509.406C320.726 509.334 321.022 509.253 321.312 509.188C321.574 509.128 321.83 509.08 322.094 509.031Z" fill="#201F51"/>
<path d="M131.063 349.344C129.969 349.382 128.867 349.635 127.813 350.125C123.595 352.084 121.76 357.095 123.719 361.312C124.409 362.789 125.155 364.256 125.875 365.719C126.463 366.913 127.057 368.138 127.375 369.438C127.986 371.932 127.431 374.72 127.156 377.219C126.752 380.896 126.492 384.585 125.969 388.25C124.092 401.397 119.589 414.838 109.344 423.844C106.044 426.745 102.308 428.977 98.3438 430.844C94.3598 432.718 92.6571 437.485 94.5312 441.469C96.4054 445.453 101.141 447.155 105.125 445.281C110.43 442.789 115.404 439.75 119.844 435.906C134.452 423.261 140.789 404.67 143.063 386C143.342 383.703 143.55 381.392 143.813 379.094C144.327 374.595 144.776 370.096 143.75 365.625C142.821 361.579 140.723 357.953 139 354.219C137.531 351.055 134.342 349.23 131.063 349.344Z" fill="#201F51"/>
<path d="M114.25 380.25C112.442 380.219 110.937 381.66 110.906 383.469C110.695 395.385 105.808 406.131 97.5312 414.625C96.2015 415.996 96.2535 418.17 97.625 419.5C98.9965 420.83 101.17 420.809 102.5 419.438C104.8 417.055 106.94 414.539 108.781 411.781C114.362 403.422 117.304 393.621 117.469 383.594C117.5 381.785 116.058 380.281 114.25 380.25Z" fill="#201F51"/>
</svg>
