<svg width="716" height="730" viewBox="0 0 716 730" fill="none" xmlns="http://www.w3.org/2000/svg">
<path d="M716 365C716 566.584 555.718 730 358 730C160.282 730 0 566.584 0 365C0 163.416 160.282 0 358 0C555.718 0 716 163.416 716 365Z" fill="#E4D779"/>
<path d="M368.188 223.969C366.721 223.731 365.19 223.782 363.656 224.156C321.976 234.389 278.57 233.067 235.969 234C224.182 234.258 212.406 233.856 200.625 234.406C197.278 234.563 193.923 234.808 190.594 235.188C188.301 235.449 186.16 235.771 184.031 236.719C182.004 237.621 180.227 238.987 178.625 240.5C177.694 241.379 176.883 242.393 175.875 243.188C171.221 246.942 170.496 253.784 174.25 258.438C178.004 263.091 184.815 263.817 189.469 260.062C190.737 259.03 191.877 257.865 193.031 256.719C194.243 256.585 195.221 256.476 196.438 256.375C199.349 256.134 202.267 255.991 205.188 255.906C212.566 255.692 219.933 255.916 227.312 255.938C232.597 255.953 237.903 255.823 243.188 255.781C270.123 255.571 297.109 256.068 323.969 253.656C339.16 252.292 354.237 249.972 369.062 246.375C375.198 244.878 378.966 238.698 377.469 232.562C376.346 227.961 372.586 224.682 368.188 223.969Z" fill="#505005"/>
<path d="M181.094 239.281C174.332 239.245 169.778 244.601 168.156 250.656C167.444 253.316 167.442 256.002 167.156 258.719C166.992 260.276 166.768 261.811 166.656 263.375C166.522 265.254 166.457 267.148 166.406 269.031C166.259 274.451 166.329 279.836 167.062 285.219C168.164 293.297 170.692 301.152 174.781 308.219C178.391 314.458 183.024 319.778 189.25 323.5C196.41 327.781 204.745 329.723 213.031 329.969C225.859 330.349 238.986 326.932 250.062 320.469C255.768 317.139 261.028 312.887 265.062 307.625C275.376 294.174 278.805 276.831 278.969 260.219C279.021 253.903 273.94 248.74 267.625 248.688C261.31 248.635 256.177 253.716 256.125 260.031C256.054 270.862 254.448 282.385 248.5 291.688C245.272 296.735 240.447 300.249 235.094 302.812C229.233 305.619 222.713 307.316 216.219 307.625C212.165 307.818 208.049 307.464 204.188 306.156C198.324 304.17 195.255 300.416 192.5 295C189.012 288.144 187.964 280.395 188.031 272.781C188.054 270.155 188.103 267.527 188.281 264.906C188.312 264.456 188.387 264.009 188.438 263.562C190.635 262.839 192.667 261.566 194.062 259.5C197.41 254.545 196.111 247.816 191.156 244.469C191.282 244.563 191.411 244.686 191.531 244.781C191.562 244.806 191.596 244.818 191.625 244.844C191.496 244.71 191.378 244.572 191.25 244.438C191.076 244.256 190.896 244.054 190.719 243.875C190.481 243.634 190.249 243.387 190 243.156C189.668 242.848 189.357 242.56 189 242.281C186.727 240.507 184.028 239.297 181.094 239.281Z" fill="#505005"/>
<path d="M415.344 216.844C413.37 216.773 411.368 217.141 409.406 217.844C409.112 217.949 408.822 218.071 408.531 218.188C408.315 218.274 408.09 218.347 407.875 218.438C407.734 218.497 407.605 218.559 407.469 218.625C406.244 218.819 405.025 219.066 403.812 219.312C400.676 219.951 397.558 220.722 394.438 221.438C392.965 221.775 391.459 221.974 389.969 222.219C386.684 222.758 383.394 223.193 380.094 223.625C370.927 224.824 361.755 225.843 352.688 227.688C346.828 228.877 343.029 234.578 344.219 240.438C345.408 246.297 351.14 250.096 357 248.906C367.652 246.749 378.479 245.887 389.219 244.312C392.103 243.89 395.013 243.461 397.875 242.906C400.026 242.49 402.143 241.946 404.281 241.469C405.835 241.122 407.372 240.726 408.938 240.438C409.496 240.335 410.038 240.165 410.594 240.062C411.283 241.352 412.001 242.617 412.75 243.875C414.461 246.748 416.256 249.592 417.906 252.5C419.747 255.744 421.548 259.244 422 263C422.256 265.124 422.018 267.257 421.594 269.344C420.44 275.013 417.459 280.145 413.719 284.5C408.95 290.052 402.936 294.469 396.594 298.062C388.845 302.454 380.381 305.741 371.656 307.562C368.38 308.247 365.03 308.697 361.688 308.25C355.478 307.419 349.877 303.955 344.469 301.031C343.115 300.3 341.732 299.601 340.344 298.938C338.638 298.122 337.067 297.484 335.75 296.094C331.057 291.138 328.165 284.338 325.344 278.219C324.737 276.902 324.123 275.601 323.594 274.25C320.941 267.473 319.157 258.343 324.25 252.25C328.28 247.387 327.582 240.186 322.719 236.156C317.856 232.127 310.655 232.793 306.625 237.656C304.868 239.788 303.33 242.057 302.094 244.531C296.759 255.209 297.405 267.833 301.031 278.938C302.026 281.983 303.312 284.878 304.656 287.781C308.734 296.59 313.04 305.591 320 312.531C321.812 314.338 323.798 315.881 326 317.188C328.464 318.649 331.163 319.679 333.688 321.031C340.56 324.712 347.52 328.446 355.219 330.062C363.531 331.808 371.832 330.863 379.969 328.781C385.02 327.489 389.966 325.81 394.781 323.812C398.574 322.239 402.278 320.45 405.875 318.469C423.908 308.535 440.387 292.631 443.531 271.406C444.079 267.707 444.23 263.932 443.75 260.219C442.629 251.543 438.322 243.892 433.812 236.562C432.82 234.949 431.846 233.346 430.875 231.719C430.502 231.094 430.016 230.402 429.688 229.75C429.042 228.469 428.677 227.068 428.031 225.781C426.515 222.761 424.227 219.928 421.156 218.375C419.268 217.42 417.317 216.915 415.344 216.844Z" fill="#505005"/>
<path d="M357.75 231.469C356.844 231.372 355.903 231.377 355 231.5C354.064 231.628 353.143 231.909 352.25 232.219C351.547 232.462 350.896 232.788 350.25 233.156C348.651 234.067 347.3 235.344 346.031 236.656C345.844 236.85 345.461 237.173 345.281 237.438C344.763 237.833 344.317 238.305 343.812 238.719C343.617 238.379 343.48 238.008 343.25 237.688C342.827 237.099 342.422 236.51 341.906 236C341.282 235.382 340.613 234.79 339.875 234.312C339.128 233.829 338.304 233.431 337.469 233.125C336.665 232.83 335.817 232.647 334.969 232.531C334.185 232.424 333.383 232.404 332.594 232.469C331.736 232.539 330.892 232.71 330.062 232.938C326.476 233.92 323.769 236.599 321.438 239.344C313.94 248.173 307.4 257.506 304.375 268.844C302.836 274.622 306.253 280.555 312.031 282.094C313.298 282.431 314.579 282.426 315.812 282.312C316.303 282.774 316.733 283.302 317.281 283.688C318.175 284.317 319.224 284.716 320.25 285.094C320.381 285.142 320.522 285.148 320.656 285.188C320.472 285.615 320.28 286.043 320.094 286.469C317.573 292.259 320.241 299.01 326.031 301.531C331.822 304.052 338.541 301.384 341.062 295.594C343.596 289.75 345.76 283.597 349.062 278.125C351.918 273.393 355.514 269.128 358.531 264.5C359.821 262.521 360.975 260.468 362.125 258.406C362.759 257.27 363.42 256.135 364 254.969C364.563 254.385 365.078 253.7 365.562 253.062C368.639 249.017 369.819 243.833 367.812 239C367.28 237.719 366.541 236.482 365.594 235.469C364.931 234.759 364.21 234.077 363.406 233.531C362.555 232.954 361.654 232.477 360.688 232.125C359.744 231.782 358.748 231.575 357.75 231.469Z" fill="#505005"/>
<path d="M406.75 234.938C405.109 234.955 403.645 235.999 402.219 236.812C401.398 237.28 400.752 238.041 400.094 238.719C398.945 239.901 398.166 241.507 397.438 242.969C396.347 245.155 395.34 247.401 394.406 249.656C393.137 252.721 391.901 255.77 390.594 258.812C390.588 258.825 390.568 258.831 390.562 258.844C389.404 260.359 388.235 261.891 387.125 263.438C383.87 267.974 381.243 272.92 378.75 277.906C377.906 279.595 377.12 281.322 376.25 283C375.348 284.235 374.387 285.422 373.562 286.719C370.79 291.08 368.874 295.855 367.469 300.812C365.838 306.565 369.154 312.556 374.906 314.188C379.221 315.411 383.671 313.821 386.312 310.531C386.323 310.529 386.334 310.534 386.344 310.531C389.057 309.887 391.449 308.196 393.531 306.406C396.134 304.169 398.394 301.583 400.906 299.25C403.455 296.883 406.158 294.676 408.594 292.188C411.322 289.401 413.771 286.294 415.906 283.031C417.939 279.926 419.58 276.617 421.125 273.25C422.409 270.453 423.589 267.513 425.188 264.875C425.864 263.759 426.679 262.71 427.406 261.625C430.916 256.374 429.501 249.26 424.25 245.75C422.787 244.772 421.164 244.269 419.531 244.031C419.39 243.177 419.319 242.292 418.875 241.562C417.779 239.764 416.722 237.7 414.875 236.688C412.45 235.358 409.515 234.908 406.75 234.938Z" fill="#505005"/>
<path d="M198.969 243.906C198.01 243.985 197.063 244.21 196.156 244.531C195.235 244.857 194.364 245.333 193.531 245.844C192.863 246.254 192.266 246.752 191.688 247.281C189.684 249.113 188.173 251.596 186.875 253.969C186.573 254.52 186.091 254.962 185.719 255.469C185.33 255.998 184.967 256.553 184.594 257.094C183.358 258.885 182.184 260.726 180.969 262.531C178.175 266.66 178.782 271.919 181.875 275.531C182.501 276.991 183.23 278.463 184.375 279.531C185.955 281.005 187.968 282.013 190.031 282.656C191.508 283.117 193.147 282.857 194.688 282.719C195.534 282.643 196.327 282.292 197.125 282C198.686 281.429 200.098 280.393 201.344 279.312C203.406 277.524 205.447 275.478 207.156 273.344C208.216 272.02 209.124 270.586 210.125 269.219C212.119 266.453 212.601 263.146 211.906 260.062C212.388 257.9 212.567 255.684 212 253.5C211.841 252.89 211.649 252.3 211.406 251.719C211.15 251.106 210.871 250.508 210.531 249.938C210.209 249.397 209.843 248.856 209.438 248.375C208.937 247.78 208.419 247.205 207.812 246.719C207.028 246.089 206.191 245.494 205.281 245.062C204.299 244.596 203.258 244.225 202.188 244.031C201.135 243.841 200.034 243.819 198.969 243.906Z" fill="#505005"/>
<path d="M222.312 240.219C219.394 240.007 216.388 240.903 214 242.969C206.77 249.285 199.348 255.415 192.562 262.219C186.305 268.493 180.697 275.314 175.969 282.812C172.767 287.863 174.262 294.548 179.312 297.75C184.363 300.952 191.048 299.456 194.25 294.406C196.692 290.574 199.381 286.965 202.469 283.625C207.211 278.495 212.632 273.982 218 269.531C221.682 266.479 225.336 263.392 228.969 260.281C233.745 256.15 234.257 248.933 230.125 244.156C228.059 241.768 225.231 240.43 222.312 240.219Z" fill="#505005"/>
<path d="M257.312 260.969C252.918 260.231 248.324 262.097 245.781 266.094C238.716 277.366 229.796 287.249 220.812 297C216.748 301.385 216.99 308.248 221.375 312.312C225.76 316.377 232.623 316.104 236.688 311.719C243.192 304.743 250.039 298.039 256.125 290.688C259.367 286.771 262.309 282.647 265.062 278.375C268.452 273.046 266.891 265.984 261.562 262.594C260.23 261.746 258.777 261.215 257.312 260.969Z" fill="#505005"/>
<path d="M259.688 240.188C257.464 240.166 255.234 240.807 253.344 241.969C250.296 243.841 248.478 246.95 247.719 250.375C247.621 250.816 247.56 251.271 247.5 251.719C247.455 252.054 247.436 252.382 247.406 252.719C247.368 253.147 247.344 253.571 247.312 254C247.319 253.959 247.335 253.915 247.344 253.875C247.369 253.759 247.41 253.646 247.438 253.531C247.446 253.494 247.46 253.443 247.469 253.406C247.287 254.024 247.383 254.632 247.312 255.25C245.363 258.301 243.434 261.344 241.312 264.281C235.397 272.472 228.868 280.235 222.375 287.969C218.334 292.823 218.99 300.022 223.844 304.062C228.698 308.103 235.928 307.448 239.969 302.594C246.045 295.231 252.092 287.855 257.531 280C259.638 276.958 261.684 273.857 263.594 270.688C264.361 269.414 265.071 268.113 265.844 266.844C266.504 265.759 267.181 264.683 267.781 263.562C268.506 262.208 269.025 260.807 269.562 259.375C270.743 256.23 271.807 252.894 271.062 249.5C270.914 248.823 270.738 248.139 270.469 247.5C270.119 246.671 269.741 245.858 269.219 245.125C268.641 244.314 267.949 243.548 267.188 242.906C266.409 242.25 265.544 241.72 264.625 241.281C263.763 240.87 262.839 240.611 261.906 240.406C261.178 240.246 260.433 240.195 259.688 240.188Z" fill="#505005"/>
<path d="M231 283.312C228.252 283.664 225.641 285.072 223.812 287.438C219.12 293.44 213.923 298.977 208.75 304.562C204.509 309.242 204.883 316.477 209.562 320.719C214.242 324.96 221.446 324.617 225.688 319.938C227.504 317.89 229.351 315.856 231.062 313.719C234.468 309.464 237.627 305.016 240.938 300.688C244.595 295.957 243.73 289.158 239 285.5C236.635 283.671 233.748 282.961 231 283.312Z" fill="#505005"/>
<path d="M299.781 90.875C294.709 90.9223 289.642 91.5957 284.656 92.5C270.45 95.0769 256.83 100.589 245.25 109.281C238.479 114.364 232.483 120.442 227.375 127.188C218.353 139.101 212.139 152.893 207.875 167.156C201.229 189.389 199.246 212.7 199.125 235.812C199.093 241.792 203.927 246.656 209.906 246.688C215.886 246.719 220.749 241.917 220.781 235.938C220.896 214.898 222.595 193.588 228.656 173.344C232.609 160.14 238.443 147.289 247.469 136.75C258.151 124.276 272.415 116.747 288.5 113.844C291.939 113.223 295.472 112.707 298.969 112.594C306.102 112.364 313.175 113.849 320.188 114.938C323.458 115.445 326.775 115.782 330.031 116.375C333.317 116.974 336.561 117.789 339.75 118.781C349.442 121.798 358.348 126.621 367.594 130.719C379.595 136.037 392.315 140.736 402.688 149C406.116 151.732 409.335 154.783 412.438 157.875C428.195 173.58 439.686 192.659 450.875 211.719C456.028 220.497 461.996 228.911 466.125 238.25C468.458 243.527 470.218 249.088 471.812 254.625C474.443 263.76 476.516 273.021 478.906 282.219C482.034 294.252 486.349 305.979 488.906 318.156C492.564 335.572 493.582 353.467 495.094 371.156C495.592 376.981 496.205 382.792 496.594 388.625C497.127 396.637 497.31 404.691 497.094 412.719C496.233 444.617 488.816 477.023 471.656 504.25C459.565 523.435 441.205 538.112 421.438 548.812C414.232 552.713 406.755 556.066 399.25 559.344C386.966 564.709 374.273 569.456 360.938 571.344C355.273 572.146 349.562 572.433 343.844 572.281C340.237 572.186 336.628 571.843 333.031 571.594C326.973 571.174 320.852 570.955 314.906 569.625C312.284 569.039 309.735 568.173 307.25 567.156C283.25 557.339 267.411 534.708 255.5 512.688C247.513 497.921 240.579 482.527 235.812 466.406C233.456 458.437 231.461 450.271 230.781 441.969C229.301 423.884 233.006 405.817 235.75 388.031C238.344 371.219 240.567 353.597 249.469 338.75C252.715 333.333 250.949 326.309 245.531 323.062C240.114 319.816 233.09 321.551 229.844 326.969C227.447 330.97 225.341 335.11 223.594 339.438C217.631 354.203 215.392 370.084 212.969 385.719C209.991 404.932 206.424 424.318 208.031 443.844C208.843 453.711 211.132 463.431 213.938 472.906C219.309 491.048 227.15 508.331 236.219 524.906C250.642 551.271 270.021 576.527 298.656 588.219C303.697 590.277 308.877 591.774 314.25 592.656C320.35 593.658 326.532 593.898 332.688 594.344C336.87 594.646 341.054 594.99 345.25 595.031C352.179 595.099 359.093 594.612 365.938 593.531C381.272 591.109 395.834 585.604 409.969 579.344C418.675 575.488 427.313 571.496 435.594 566.781C457.396 554.368 477.255 537.612 490.688 516.219C509.41 486.401 518.017 451.157 519.281 416.219C519.597 407.497 519.48 398.743 518.969 390.031C518.535 382.65 517.727 375.303 517.094 367.938C515.534 349.784 514.318 331.457 510.531 313.594C507.805 300.731 503.297 288.333 499.969 275.625C495.898 260.084 492.774 244.099 486.219 229.344C481.723 219.225 475.354 210.132 469.75 200.625C458.188 181.01 446.267 161.501 430.406 145C425.384 139.776 420.041 134.707 414.219 130.375C402.442 121.611 388.711 116.301 375.406 110.375C371.027 108.424 366.743 106.257 362.375 104.281C357.097 101.893 351.723 99.7493 346.188 98.0313C342.157 96.7804 338.059 95.753 333.906 95C330.462 94.3753 326.99 94.0029 323.531 93.4688C315.663 92.2535 307.775 90.8005 299.781 90.875Z" fill="#505005"/>
<path d="M370.469 388.344C367.696 388.543 365.048 389.714 362.938 391.594C361.921 392.499 361.157 393.592 360.375 394.688C358.347 396.013 356.373 397.458 354.344 398.781C348.946 402.3 343.392 405.59 337.625 408.469C330.773 411.889 323.632 414.815 316.5 417.594C303.502 422.658 290.047 426.874 276.156 428.562C272.671 428.986 269.167 429.235 265.656 429.312C263.042 429.37 260.426 429.308 257.812 429.281C250.114 429.203 242.133 429.671 234.625 427.625C232.726 427.107 230.93 426.378 229.156 425.531C223.757 422.962 217.288 425.257 214.719 430.656C212.15 436.056 214.444 442.525 219.844 445.094C224.477 447.292 229.286 448.843 234.344 449.719C242.022 451.048 249.835 450.853 257.594 450.938C260.441 450.968 263.277 451.061 266.125 451C271.543 450.884 276.951 450.417 282.312 449.625C297.909 447.32 312.983 442.515 327.594 436.688C333.285 434.418 338.974 432.083 344.531 429.5C351.577 426.225 358.282 422.289 364.844 418.125C365.173 419.801 365.534 421.474 365.812 423.156C368.251 437.915 369.484 453.475 364.125 467.75C361.148 475.68 356.402 482.802 350.312 488.688C346.646 492.231 342.331 495.031 338.594 498.5C334.977 501.857 331.614 505.482 328.062 508.906C325.378 511.494 322.581 513.937 319.656 516.25C305.42 527.507 289.365 536.243 273.812 545.5C268.388 548.734 266.61 555.763 269.844 561.188C273.078 566.612 280.106 568.39 285.531 565.156C301.946 555.355 318.762 546.005 333.781 534.094C337.286 531.314 340.659 528.391 343.875 525.281C347.318 521.953 350.589 518.451 354.094 515.188C356.861 512.611 359.971 510.422 362.844 507.969C365.883 505.374 368.689 502.508 371.281 499.469C384.448 484.03 390.786 464.439 390.312 444.25C390.097 435.076 389.009 425.894 387.344 416.875C386.581 412.742 385.676 408.632 384.5 404.594C384.501 404.624 384.509 404.54 384.5 404.5C384.393 399.921 383.481 395.381 380.062 392.031C379.341 391.324 378.384 390.534 377.5 390.031C376.893 389.686 376.28 389.368 375.625 389.125C374.862 388.842 374.084 388.605 373.281 388.469C372.343 388.31 371.393 388.277 370.469 388.344Z" fill="#505005"/>
<path d="M366.25 436.031C364.767 436.123 363.288 436.484 361.875 437.188C359.49 438.381 357.036 439.518 354.688 440.781C352.302 442.064 349.952 443.458 347.625 444.844C340.196 449.268 333.022 454.155 325.312 458.094C322.299 459.633 319.197 461.02 316.125 462.438C310.367 465.095 304.598 467.691 298.781 470.219C292.401 472.991 285.952 475.643 279.406 478C276.787 478.943 274.146 479.92 271.469 480.688C267.16 481.923 262.715 482.51 258.281 483.094C254.708 483.564 251.117 484.058 247.562 484.656C241.665 485.643 237.701 491.227 238.688 497.125C239.674 503.022 245.259 506.987 251.156 506C259.897 504.546 268.809 504.008 277.375 501.625C281.668 500.431 285.912 498.877 290.094 497.344C296.278 495.076 302.383 492.71 308.469 490.188C314.134 487.839 319.765 485.382 325.375 482.906C328.755 481.414 332.157 479.952 335.469 478.312C343.714 474.232 351.372 469.136 359.281 464.469C361.329 463.26 363.37 462.055 365.469 460.938C367.623 459.79 369.875 458.74 372.062 457.656C377.716 454.841 380.003 447.997 377.188 442.344C375.076 438.104 370.698 435.756 366.25 436.031Z" fill="#505005"/>
<path d="M159 325.125C154.567 324.667 150.096 326.85 147.812 331C138.549 347.881 131.161 365.811 128.062 384.906C125.791 398.905 125.966 413.078 127.906 427.094C128.977 434.825 129.292 442.706 132.156 450.062C134.128 455.127 137.311 459.582 140.594 463.875C151.1 477.616 165.008 489.542 181.406 495.531C187.964 497.927 194.925 499.281 201.875 499.844C209.648 500.473 217.7 500.004 224.938 496.875C228.401 495.378 231.725 493.197 233.781 489.969C234.727 488.484 235.307 486.77 235.688 485.062C235.906 484.082 236.003 482.32 236.219 481.625C237.696 475.831 234.169 469.946 228.375 468.469C222.581 466.992 216.696 470.487 215.219 476.281C215.125 476.661 215.108 477.055 215.031 477.438C214.209 477.7 213.348 477.932 212.5 478.062C209.185 478.574 205.794 478.473 202.469 478.125C197.522 477.608 192.604 476.579 187.969 474.75C174.042 469.255 162.38 457.548 154.438 445.094C151.993 441.261 151.488 436.573 151.031 432.156C150.685 428.811 150.317 425.463 149.906 422.125C148.117 407.575 148.952 392.83 152.625 378.625C155.952 365.755 161.439 353.607 167.844 342C170.888 336.467 168.877 329.513 163.344 326.469C161.96 325.708 160.478 325.278 159 325.125Z" fill="#505005"/>
<path d="M156.156 245.719C154.682 245.54 153.143 245.658 151.625 246.094C147.239 247.368 143.01 249.003 139.125 251.438C134.162 254.547 130.098 258.789 126.75 263.562C124.454 266.837 122.475 270.313 120.438 273.75C118.703 276.676 117.047 279.648 115.781 282.812C113.517 288.473 112.695 294.621 113.969 300.625C115.293 306.863 118.297 312.728 121.906 317.938C128.045 326.799 136.323 334.031 145.469 339.656C150.56 342.792 157.239 341.216 160.375 336.125C163.511 331.034 161.935 324.355 156.844 321.219C150.279 317.168 144.279 312.024 139.938 305.594C138.054 302.804 136.252 299.509 135.656 296.156C135.32 294.262 135.985 292.413 136.781 290.719C137.788 288.577 139.065 286.569 140.312 284.562C143.18 279.949 146.007 274.288 150.625 271.156C152.845 269.651 155.377 268.786 157.938 268.062C164.008 266.32 167.524 260.008 165.781 253.938C164.474 249.385 160.58 246.255 156.156 245.719Z" fill="#505005"/>
<path d="M187.594 311.75C183.142 311.957 179.047 314.744 177.406 319.188C177.004 320.303 176.581 321.401 176.062 322.469C174.352 325.993 171.328 330.169 167.344 331.5C166.739 330.63 166.184 329.724 165.5 328.906C161.647 324.334 154.823 323.772 150.25 327.625C145.677 331.478 145.085 338.302 148.938 342.875C150.044 344.163 150.788 345.727 151.844 347.062C153.511 349.171 155.511 350.928 157.938 352.125C162.832 354.54 168.884 354.182 173.969 352.688C186.392 349.037 194.437 338.847 198.844 327.125C201.031 321.2 198.018 314.625 192.094 312.438C190.613 311.891 189.078 311.681 187.594 311.75Z" fill="#505005"/>
<path d="M161.906 247.031C158.474 247.724 155.124 248.797 151.688 249.469C145.799 250.508 141.867 256.112 142.906 262C143.945 267.888 149.58 271.82 155.469 270.781C158.927 270.236 162.413 270.087 165.875 269.562C172.095 268.465 176.254 262.532 175.156 256.312C174.059 250.093 168.126 245.934 161.906 247.031Z" fill="#505005"/>
<path d="M462.812 371.188C458.616 371.629 454.899 374.522 453.594 378.812C451.853 384.533 455.092 390.572 460.812 392.312C480.946 398.447 496.552 413.632 510.375 428.844C517.048 436.188 524.107 444.406 527.219 454C528.646 458.399 529.006 463.093 529.188 467.688C529.413 473.393 529.276 479.106 529.438 484.812C529.695 493.891 531.135 502.888 531.344 511.969C531.499 518.283 536.718 523.28 543.031 523.125C549.345 522.97 554.342 517.72 554.188 511.406C554.112 508.493 554.019 505.593 553.781 502.688C553.275 496.503 552.414 490.365 552.219 484.156C551.826 471.683 552.656 458.93 548.625 446.906C544.199 433.706 535.052 422.801 525.656 412.812C509.115 395.227 490.655 378.753 467.094 371.594C465.664 371.159 464.211 371.04 462.812 371.188Z" fill="#505005"/>
<path d="M562.344 495.375C554.253 495.112 546.101 496.478 538.5 499.625C530.884 502.778 524.047 507.698 518.281 513.562C514.222 517.691 510.728 522.401 508.094 527.562C505.625 532.402 503.86 537.656 503.031 543.031C502.469 546.676 502.409 550.383 502.344 554.062C502.317 555.586 502.294 557.105 502.188 558.625C502.034 560.82 501.744 563.016 501.688 565.219C501.58 569.382 502.203 573.522 504.219 577.219C505.158 578.941 506.371 580.492 507.688 581.938C508.682 583.029 509.793 584.035 510.719 585.188C513.75 588.928 518.706 589.987 522.969 588.344C523.046 591.542 524.34 594.677 527 596.875C531.869 600.897 539.072 600.213 543.094 595.344C546.096 591.674 548.001 587.436 550.281 583.312C550.657 582.633 551.071 581.961 551.5 581.312C551.614 581.386 551.733 581.453 551.844 581.531C552.145 581.744 552.435 581.983 552.719 582.219C553.855 583.161 554.893 584.209 555.938 585.25C556.135 585.447 556.332 585.648 556.531 585.844C556.582 585.894 556.634 585.923 556.688 585.969C556.695 585.981 556.682 585.992 556.688 586C556.859 586.285 557.038 586.564 557.219 586.844C557.413 587.145 557.604 587.459 557.812 587.75C558.722 589.017 559.784 590.208 561.031 591.156C563.867 593.311 567.343 594.329 570.875 594.406C574.922 594.495 578.884 593.473 582.625 592C588.052 589.863 592.984 586.777 598 583.844C599.581 582.919 601.238 582.093 602.812 581.156C606.184 579.15 609.403 576.865 612.25 574.156C614.683 571.841 616.845 569.217 618.438 566.25C623.455 556.9 621.251 545.588 617.688 536.156C614.949 528.91 611.171 521.718 606.125 515.781C604.174 513.486 601.969 511.395 599.656 509.469C589.187 500.75 575.829 495.814 562.344 495.375ZM560.219 517.281C567.824 517.316 575.445 519.653 581.781 523.844C585.226 526.122 588.351 528.924 590.688 532.344C592.543 535.059 594.116 537.992 595.438 541C596.294 542.95 597.058 544.956 597.656 547C598.247 549.018 598.731 551.11 598.812 553.219C598.836 553.819 598.919 554.836 598.625 555.375C597.499 557.434 595.362 558.978 593.469 560.25C590.507 562.24 587.235 563.817 584.156 565.625C581.503 567.183 578.857 568.768 576.062 570.062C575.26 570.434 574.391 570.59 573.562 570.875C572.364 569.529 571.143 568.188 569.844 566.969C564.067 561.55 557.3 557.381 549.094 558.031C544.499 558.395 540.086 560.407 536.719 563.531C534.348 565.731 532.52 568.404 530.906 571.188C530.267 572.29 529.686 573.435 529.094 574.562C528.696 573.522 528.271 572.475 527.531 571.562C526.495 576.179 526.338 577.623 526.5 576.188C526.704 574.377 526.977 572.536 526.844 570.719C526.813 570.306 526.31 570.087 526.031 569.781C525.269 568.944 524.454 568.177 523.688 567.344C523.602 567.25 523.484 567.105 523.375 566.969C523.35 566.766 523.347 566.548 523.344 566.344C523.332 565.678 523.382 565.006 523.438 564.344C523.555 562.935 523.716 561.535 523.812 560.125C524.127 555.548 523.761 550.89 524.469 546.344C524.841 543.951 525.568 541.593 526.531 539.375C528.241 535.435 530.763 531.889 533.781 528.844C537.511 525.081 541.921 521.824 546.844 519.812C551.11 518.069 555.656 517.26 560.219 517.281Z" fill="#505005"/>
</svg>
